<svg xmlns="http://www.w3.org/2000/svg" viewBox="0 0 847.71 155.45"><defs><style>.cls-1,.cls-3{fill:#2698c6;}.cls-2,.cls-4{fill:#1c488e;}.cls-3,.cls-4{fill-rule:evenodd;}</style></defs><g id="Capa_2" data-name="Capa 2"><g id="Capa_1-2" data-name="Capa 1"><polygon class="cls-1" points="132.26 8.46 10.89 75.4 13.31 114.92 0 137.9 137.5 8.46 66.53 61.29 132.26 8.46"/><polyline class="cls-2" points="159.68 0 57.66 143.76 39.52 143.76 8.47 155.45 159.68 0.2"/><polygon class="cls-1" points="159.68 10.08 68.75 154.84 89.92 141.94 145.17 144.76 159.68 10.08"/><path class="cls-3" d="M312,143.9c-.05-9.85-.06-19.7-.16-29.55,0-1.44.54-1.74,1.85-1.73,9.59,0,19.18,0,28.77,0a7.31,7.31,0,0,1,1.56.12c4.45,1,7.48,6.13,7,11.8-.49,5.4-4,9.2-8.83,9.27q-10.2.15-20.41,0c-1.9,0-2.68.44-2.54,2.46.18,2.52.09,5.06.12,7.58ZM330.85,120c-2.44,0-4.88,0-7.31,0-4.76.1-4.17-1.05-4.31,4.53,0,1.62.54,2.07,2.11,2.06,6.44-.09,12.87-.13,19.31,0,2.47,0,2.86-1.23,2.89-3.25,0-2.18-.49-3.48-3.05-3.37C337.29,120.1,334.06,120,330.85,120Z"/><path class="cls-3" d="M489.47,143.9l.12-20.63c0-7,3.46-10.41,10.44-10.46q9.14-.06,18.28,0c5.57,0,9.27,3.33,9.49,8.94.25,6.34.11,12.7.16,19.06a7,7,0,0,0,.25,3.09h-7.86c0-7,0-13.91.09-20.86,0-2.25-.84-2.79-2.92-2.75-5.56.12-11.12,0-16.69,0-3.71,0-3.73,0-3.81,3.76,0,2.61,0,5.22,0,7.83-.05,4-.13,8-.19,12Z"/><path class="cls-3" d="M241.34,143.9c0-6.88,0-13.77.09-20.66.07-7.2,3.46-10.52,10.61-10.52,5.93,0,11.85,0,17.78,0,6.17,0,9.69,3.5,9.73,9.73.05,7.14,0,14.29,0,21.44h-7.33c0-6.88-.05-13.76,0-20.65,0-2.2-.62-3.12-3-3.06-5.74.14-11.5.17-17.25,0-2.6-.08-3.34.92-3.32,3.33.06,6.8,0,13.6,0,20.39Z"/><path class="cls-3" d="M436.6,143.9c0-7.15-.07-14.3,0-21.45,0-1.8-.51-2.46-2.35-2.39-3.22.13-6.46,0-9.68.07-1.62,0-2.31-.39-2.33-2.19,0-5.3-.12-5.3,5.21-5.31,9.42,0,18.84.05,28.25,0,1.81,0,2.47.47,2.4,2.34-.21,6.08.85,5-5.08,5.15-2.36,0-4.72.09-7.07,0-1.61-.08-2.11.54-2.09,2.11.08,7.24.05,14.48.06,21.71Z"/><path class="cls-3" d="M559.62,143.9a5,5,0,0,0,.3-2.81c0-8.45.06-16.89,0-25.34,0-2.25.38-3.29,3-3.18,4.57.19,4.57,0,4.57,4.57,0,5.74.06,11.49,0,17.24,0,1.69.46,2.25,2.2,2.22,6.36-.1,12.72.08,19.07-.1,2.41-.07,3.07.73,2.83,3a36.42,36.42,0,0,0,0,4.43Z"/><path class="cls-3" d="M382.68,143.9c.49-5,.13-10.07.2-15.1.07-4.61.08-9.22,0-13.83,0-1.83.59-2.39,2.42-2.38,5.18,0,5.17,0,5.18,5.22q0,13.05.06,26.09Z"/><path class="cls-3" d="M513.91,128.5a4.79,4.79,0,0,1-4.84,5,4.77,4.77,0,1,1-.2-9.53A4.73,4.73,0,0,1,513.91,128.5Z"/><path class="cls-3" d="M260.73,132.46a3.76,3.76,0,1,1-.37-7.48,3.9,3.9,0,0,1,4.08,3.79C264.43,131.14,263.12,132.44,260.73,132.46Z"/><path class="cls-3" d="M204.13,136.43c-6-.09-12,.1-18,.17-2.32,0-3.56-.84-3.65-2.84h0s0-2.81,0-4.5,0-3.5,0-4.5h0c.09-4,1.33-3.78,3.65-3.75,6,.07,12-.29,18-.38,6.19-.09,5.23,1.08,5.34-5.82,0-1.32-.39-1.94-1.79-1.93-7.67.06-15.34-.12-23,0-5.65.11-9.53,4.22-9.62,9.91,0,.65,0,1.29,0,1.94h0c0,.63.05,1.27.07,1.9s0,1.12,0,1.69,0,1.13,0,1.69,0,1.27-.07,1.9h0c0,.65,0,1.3,0,2,.09,5.68,4,9.83,9.62,9.93,7.67.15,15.34,0,23,.07,1.4,0,1.82-.51,1.79-1.83C209.36,135.16,210.32,136.52,204.13,136.43Z"/><path class="cls-4" d="M168.18,27.49q6.63-.09,13.25-.16c2.17,0,2.31,1.51,2.32,3.1,0,5.83.12,11.67-.05,17.51-.07,2.53.71,3.2,3.26,3.37,3.22.2,5.27-1.08,7.29-3.28,6-6.56,12.18-13,18.28-19.47a4,4,0,0,1,3.09-1.24q8.5,0,17,0c.76,0,1.67-.16,2,.82s-.23,1.49-.8,2.08Q224.13,40.3,214.4,50.41c-2.38,2.47-4.7,5-7.09,7.46-1,1-1.25,1.78-.07,2.86,4.74,4.37,9.08,9.15,13.85,13.5s9.45,9.23,14.15,13.88c.64.63,1.24,1.38.88,2.35s-1.45.87-2.29.87c-5.31,0-10.62,0-15.92,0a4.76,4.76,0,0,1-3.55-1.47c-5.2-5.15-10.46-10.24-15.68-15.37-1.89-1.85-3.71-3.78-5.59-5.63-1.32-1.3-6.68-2-8.29-1.15-.94.51-1,1.33-1,2.26,0,5.93,0,11.85,0,17.78,0,2.88-.38,3.54-3.21,3.55-4.15,0-8.31-.09-12.46-.14Z"/><path class="cls-4" d="M575.6,59.2c0-9.55,0-19.1,0-28.64,0-2.37.74-3.3,3.2-3.29q28.63.11,57.29,0c12.34,0,18.41,9.65,19.08,19.2a26.75,26.75,0,0,1-3.63,16.39c-3.18,5.24-7.81,7.64-13.81,7.79-1.18,0-2.9-.65-3.41.58s1.18,1.93,2,2.79c4.15,4.68,8.43,9.25,12.63,13.89.63.7,1.46,1.54,1,2.56-.42.86-1.47.85-2.37.85-5.48,0-11,0-16.44,0A3.69,3.69,0,0,1,628,90q-13.39-15-26.87-29.86c-.52-.58-1.07-1.14-1.63-1.7-.78-.76-1.58-1.68-1.17-2.74s1.64-1.25,2.73-1.26c2.65,0,5.29,0,7.94,0l23.61.05c5.7,0,6.23-.55,6.05-6.22-.13-3.76-1-4.6-4.78-4.67-2.65,0-5.3,0-8,0q-15.11,0-30.23,0c-3.8,0-3.92.13-3.92,3.83q0,19.77.07,39.52c0,4.28-.09,4.4-4.5,4.42-2.75,0-5.49,0-8.23,0-3.17,0-3.53-.39-3.54-3.5Q575.6,73.52,575.6,59.2Z"/><path class="cls-4" d="M527.82,27.31c6.3.35,14-.47,21.66.48,8.87,1.1,16.88,9.72,16.92,18.6,0,8.4-.13,16.8.05,25.19.2,9.48-8.49,18.57-17.59,19.29-12.89,1-25.79.23-38.68.48a23.75,23.75,0,0,1-12-2.54c-6-3.27-10-8.18-10.64-15.1a186.17,186.17,0,0,1,.14-29.4c.49-7.39,6.63-14.26,15.8-16.43a20.32,20.32,0,0,1,5-.59C514.43,27.34,520.44,27.31,527.82,27.31ZM527,43.59c-5.48,0-11,0-16.44,0-1.06,0-2.11.19-3.16.27-2.42.19-3.44,1.8-3.47,3.92-.11,7.59-.05,15.19-.1,22.78a3.67,3.67,0,0,0,2.88,3.91,13.63,13.63,0,0,0,4.17.61q15.38,0,30.76,0H544c4.31-.06,5.54-1.08,5.85-5.24.5-6.71.28-13.43.11-20.14-.1-4.52-1.54-6-6-6.07C538.28,43.56,532.62,43.6,527,43.59Z"/><path class="cls-4" d="M283.34,91.34c-5.74,0-11.49-.11-17.23,0-6.79.17-12.35-2.5-17.07-7.09a15.73,15.73,0,0,1-4.86-10.55c-.32-9.61-.7-19.26.22-28.87.73-7.56,4.94-12.65,11.81-15.59a24.37,24.37,0,0,1,10-2c11.31.15,22.63.11,33.94,0C306.39,27.24,312,28.6,316.7,33c3.68,3.45,6.07,7.47,6.12,12.69.09,8.13,0,16.27.47,24.37C324,81.61,314,91,303.23,91.3c-6.63.16-13.26,0-19.89,0ZM284,43.59v0c-6.19,0-12.38-.06-18.57,0-3.66,0-5.18,1.92-5,5.6.08,1.4-.16,2.82-.17,4.23,0,5.91-.37,11.84.39,17.74a3.65,3.65,0,0,0,3,3.48,27.1,27.1,0,0,0,6.6.34q15.26.06,30.51,0c4.45,0,5.78-1.41,5.83-5.92.06-6.79.13-13.59.13-20.38,0-3.49-1.71-5.15-5.27-5.16C295.67,43.57,289.84,43.59,284,43.59Z"/><path class="cls-4" d="M436.91,75c13.36,0,26,.33,38.75-.12,2-.07,2.87.73,2.81,2.81-.12,4.06-.14,8.12,0,12.18,0,1.07-.41,1.16-1.17,1.22-1,.09-1.92.28-2.88.28q-30.37,0-60.76,0c-3.57,0-4.13-.57-4.13-4.17a47.35,47.35,0,0,0,0-7.15c-.63-4,1.62-6.18,4.4-8.28q11.82-8.93,23.55-18,5.14-3.95,10.17-8c.62-.5,2-.66,1.57-1.76-.29-.79-1.43-.39-2.19-.39q-16.57,0-33.14,0c-4,0-4.31-.35-4.31-4.44q0-4.36,0-8.75c0-2,.85-3.11,3-3.11q30.76,0,61.55,0c1.94,0,2.69.83,2.66,2.72-.06,3.71-.05,7.43,0,11.14A3.36,3.36,0,0,1,475.28,44c-9.49,7.62-18.91,15.3-28.36,22.95C443.78,69.53,440.6,72,436.91,75Z"/><path class="cls-4" d="M348.76,51.79c0,11.8,0,23.44,0,35.09,0,3.83-.56,4.47-4.39,4.48-3.09,0-6.19,0-9.29,0-2.08,0-3-.9-3-3q0-28.8-.05-57.58c0-2.46,1-3.54,3.5-3.45,3.45.12,6.9.08,10.35,0a4.47,4.47,0,0,1,3.71,1.6c7.42,8.29,14.89,16.54,22.32,24.81q5.31,5.91,10.59,11.83c.35.38.71.94,1.3.68s.33-.89.32-1.41q0-17-.06-33.95c0-2.91.62-3.51,3.63-3.54s6.19.12,9.28,0c2.55-.13,3.39.83,3.38,3.37-.08,16.89,0,33.78,0,50.68,0,2.39-.07,4.78,0,7.16.08,2.11-.62,3.11-2.91,2.93a36.88,36.88,0,0,0-6.89,0c-4.37.48-7.32-1.17-10.17-4.58-6.82-8.2-14.15-16-21.25-23.94q-4.23-4.74-8.33-9.59A3.73,3.73,0,0,0,348.76,51.79Z"/><path class="cls-4" d="M847.68,66.12c0,7.43-.06,14.86,0,22.28,0,2.14-.62,3.07-2.86,3-3.44-.14-6.89-.08-10.34-.07-2.08,0-2.75-1.06-2.73-3,.08-12.56.17-25.11.14-37.67,0-7-.13-7.06-7-7.06q-16.85,0-33.69,0c-4.12,0-4.71.55-4.89,4.71-.13,3.09-.17,6.18-.16,9.27q0,15.25.18,30.5c0,2.15-.8,3.29-3.12,3.25-3.71-.06-7.42,0-11.14,0-1.15,0-1.81-.07-1.92-1.68-.53-7.51-.11-15-.22-22.52-.1-6.8-.46-13.64,0-20.41.8-10.87,6.62-19.43,19.34-19.43h39c9.9,0,16.06,4.47,19.09,13.93a9.38,9.38,0,0,1,.3,2.86c0,7.34,0,14.68,0,22Z"/><path class="cls-4" d="M690.77,67.46c0-7.16-.07-14.33.05-21.49,0-2-.77-2.4-2.5-2.4-7.87,0-15.75,0-23.62.09-1.58,0-2-.42-1.93-1.87.05-3.45-.06-6.9,0-10.34,0-3.7.5-4.14,4.11-4.14h62.88c6.06,0,6.06,0,6,6.05,0,2.21,0,4.42,0,6.63,0,3.28-.31,3.59-3.7,3.59-7.16,0-14.33.07-21.49,0-2.13,0-2.94.56-2.93,2.84.05,13.7,0,27.41-.06,41.11,0,3.38-.32,3.82-3.75,3.85s-6.56-.13-9.82,0c-2.48.12-3.16-.92-3.12-3.24.1-6.89,0-13.79,0-20.69Z"/><path class="cls-4" d="M744.37,92.2V85.62q0-23.08,0-46.16c0-3.26,0-6.53.09-9.79,0-1.7.74-2.49,2.62-2.41,3.62.15,7.25.11,10.88,0,1.88-.05,2.8.77,2.94,2.59.07,1,.18,1.93.18,2.9,0,18.39-.12,36.79,0,55.18,0,2.85-.85,3.54-3.48,3.4-3.26-.18-6.54,0-9.81,0C746.72,91.37,745.54,91.14,744.37,92.2Z"/><path class="cls-4" d="M796.39,60.41c0-7.16,4.76-11.88,12-11.88s12.39,5.18,11.87,12.88c-.42,6.31-4.41,10.61-12,10.8C801.28,72.37,796.39,67.33,796.39,60.41Z"/></g></g></svg>