<svg width="21" height="24" viewBox="0 0 21 24" fill="none" xmlns="http://www.w3.org/2000/svg">
<path d="M10.9322 0.356445C17.1665 0.356445 20.2647 4.90592 20.2647 10.8647C20.2748 11.7858 20.1859 12.7054 19.9994 13.6076H6.8676C7.01158 14.9797 7.68616 16.2416 8.74783 17.1248C9.8095 18.008 11.1745 18.4428 12.5524 18.3368C14.2386 18.3138 15.8827 17.8083 17.2897 16.8802L19.4594 20.8054C17.1669 22.3816 14.4636 23.256 11.6807 23.3213C5.42746 23.3213 0.585938 19.084 0.585938 11.8389C0.585938 4.59379 5.6738 0.356445 10.9322 0.356445ZM14.7221 9.5878C14.7315 7.07188 13.6704 5.35046 11.1122 5.35046C9.07519 5.35046 7.32238 6.72192 6.8676 9.6351L14.7221 9.5878Z" fill="#0E1C28"/>
</svg>
