<svg width="80" height="30" viewBox="0 0 80 30" fill="none" xmlns="http://www.w3.org/2000/svg">
<path d="M25.4781 0.000339438V29.1888H17.7279V18.4063H8.66068V29.1888H0.919922V0.000339438H8.66068V10.6788H17.7279V0.000339438H25.4781Z" fill="url(#paint0_linear_4744_21)"/>
<path d="M47.3265 26.9661C47.6108 26.7202 47.895 26.4648 48.1603 26.2C48.4256 25.9352 48.6151 25.7176 48.8235 25.4812C50.1867 23.8723 51.1046 21.9354 51.4859 19.8629C51.5591 19.3677 51.6034 18.8688 51.6185 18.3685C51.3177 18.244 51.0606 18.0334 50.8795 17.7631C50.3147 16.8699 49.8478 15.9186 49.4867 14.9256L47.7529 16.5714C47.6985 16.6359 47.6302 16.6873 47.5531 16.7217C47.4759 16.7561 47.392 16.7726 47.3076 16.77C47.2207 16.77 47.135 16.7495 47.0576 16.71C46.9802 16.6705 46.9132 16.6133 46.8623 16.543C46.1307 15.6679 45.7524 14.5518 45.8015 13.4131C45.8506 12.2743 46.3234 11.1948 47.1276 10.3856C47.5618 9.91257 48.1002 9.54669 48.7003 9.31682C48.7962 6.37629 49.8432 3.54579 51.6848 1.24884V0.000339438H43.963V17.9712C43.963 19.0123 43.5488 20.0107 42.8114 20.7468C42.074 21.4829 41.0739 21.8964 40.0311 21.8964C38.9883 21.8964 37.9882 21.4829 37.2508 20.7468C36.5134 20.0107 36.0991 19.0123 36.0991 17.9712V0.000339438H28.3299V17.9712C28.3076 19.5018 28.5996 21.0207 29.1878 22.4343C29.7761 23.8479 30.6481 25.1263 31.7503 26.1905C32.8153 27.2921 34.0957 28.1636 35.512 28.751C36.9282 29.3383 38.4503 29.629 39.9837 29.605C40.2111 29.605 40.429 29.605 40.6469 29.605C42.8897 29.4686 45.0465 28.694 46.8623 27.3728C47.0139 27.2026 47.1749 27.0985 47.3265 26.9661Z" fill="url(#paint1_linear_4744_21)"/>
<path d="M77.1238 13.9136C77.8359 12.5605 78.2036 11.0533 78.1945 9.52489C78.2094 8.26629 77.9648 7.01808 77.4758 5.8579C76.9868 4.69772 76.2639 3.6504 75.3521 2.78108C74.4881 1.89184 73.4523 1.18689 72.3074 0.708913C71.1625 0.230936 69.9324 -0.0101248 68.6914 0.000325811H54.3848V1.22045C54.9911 2.03387 55.6165 2.94188 55.6733 3.11213C56.7701 5.03024 57.3846 7.18528 57.464 9.39248C58.0613 9.60611 58.6022 9.95213 59.0463 10.4045C59.8478 11.2175 60.3179 12.299 60.3652 13.4387C60.4124 14.5784 60.0335 15.695 59.3021 16.5714C59.2523 16.6428 59.1856 16.7009 59.1079 16.7405C59.0302 16.7801 58.944 16.8 58.8568 16.7984C58.7723 16.801 58.6884 16.7845 58.6113 16.7501C58.5342 16.7157 58.4658 16.6643 58.4115 16.5997L56.6302 14.8594C56.2631 15.9247 55.7667 16.9412 55.1522 17.8861C54.9678 18.1461 54.7058 18.3414 54.4037 18.4441C54.4619 18.4295 54.5189 18.4105 54.5743 18.3874C54.5743 23.4571 54.9722 29.1794 63.1014 29.5672H71.098C73.4416 29.4283 75.6365 28.3752 77.2091 26.6351C78.8422 24.9352 79.7406 22.6626 79.7104 20.3074C79.7217 19.1242 79.4991 17.9504 79.0552 16.8532C78.6114 15.7561 77.9551 14.7571 77.1238 13.9136ZM62.1539 7.81293H68.663C68.9396 7.81023 69.214 7.86329 69.4695 7.96893C69.7251 8.07457 69.9568 8.23062 70.1505 8.42772C70.349 8.62435 70.5057 8.85882 70.6115 9.11718C70.7173 9.37554 70.77 9.65251 70.7664 9.9316C70.7702 10.2079 70.7175 10.4821 70.6116 10.7374C70.5057 10.9927 70.3489 11.2238 70.1505 11.4166C69.9609 11.6211 69.7308 11.7839 69.4746 11.8946C69.2185 12.0053 68.9421 12.0616 68.663 12.0597H62.1539V7.81293ZM71.5528 21.1492C71.4242 21.3418 71.2493 21.4989 71.044 21.6064C70.8387 21.7138 70.6097 21.768 70.3779 21.764H62.1539V17.4983H70.0842C70.5084 17.4977 70.923 17.6241 71.2745 17.861C71.6261 18.0979 71.8984 18.4345 72.0565 18.8275C72.2146 19.2204 72.2511 19.6516 72.1613 20.0655C72.0715 20.4793 71.8595 20.8568 71.5528 21.1492Z" fill="url(#paint2_linear_4744_21)"/>
<path d="M53.0018 7.93592C53.7291 7.93592 54.3188 7.34731 54.3188 6.62121C54.3188 5.89511 53.7291 5.3065 53.0018 5.3065C52.2744 5.3065 51.6848 5.89511 51.6848 6.62121C51.6848 7.34731 52.2744 7.93592 53.0018 7.93592Z" fill="url(#paint3_linear_4744_21)"/>
<path d="M55.4268 8.19127L53.3329 6.99006L53.4939 6.70631L55.5878 7.90752L55.4268 8.19127Z" fill="url(#paint4_linear_4744_21)"/>
<path d="M55.3511 8.63579C55.7278 8.63579 56.0332 8.3309 56.0332 7.95479C56.0332 7.57868 55.7278 7.27379 55.3511 7.27379C54.9743 7.27379 54.6689 7.57868 54.6689 7.95479C54.6689 8.3309 54.9743 8.63579 55.3511 8.63579Z" fill="url(#paint5_linear_4744_21)"/>
<path d="M50.6424 8.66418C51.0191 8.66418 51.3246 8.35929 51.3246 7.98318C51.3246 7.60707 51.0191 7.30218 50.6424 7.30218C50.2656 7.30218 49.9602 7.60707 49.9602 7.98318C49.9602 8.35929 50.2656 8.66418 50.6424 8.66418Z" fill="url(#paint6_linear_4744_21)"/>
<path d="M50.8125 8.04939L50.6514 7.76564L52.7358 6.56442L52.9064 6.84818L50.8125 8.04939Z" fill="url(#paint7_linear_4744_21)"/>
<path d="M52.9639 4.56874C53.3406 4.56874 53.646 4.26384 53.646 3.88774C53.646 3.51163 53.3406 3.20673 52.9639 3.20673C52.5871 3.20673 52.2817 3.51163 52.2817 3.88774C52.2817 4.26384 52.5871 4.56874 52.9639 4.56874Z" fill="url(#paint8_linear_4744_21)"/>
<path d="M53.1629 4.04854H52.8312V6.46042H53.1629V4.04854Z" fill="url(#paint9_linear_4744_21)"/>
<defs>
<linearGradient id="paint0_linear_4744_21" x1="79.7112" y1="14.5773" x2="0.686908" y2="14.5773" gradientUnits="userSpaceOnUse">
<stop stop-color="#EC2C20"/>
<stop offset="1" stop-color="#E0FF4F"/>
</linearGradient>
<linearGradient id="paint1_linear_4744_21" x1="79.7112" y1="14.5773" x2="0.686908" y2="14.5773" gradientUnits="userSpaceOnUse">
<stop stop-color="#EC2C20"/>
<stop offset="1" stop-color="#E0FF4F"/>
</linearGradient>
<linearGradient id="paint2_linear_4744_21" x1="79.7112" y1="14.5773" x2="0.686908" y2="14.5773" gradientUnits="userSpaceOnUse">
<stop stop-color="#EC2C20"/>
<stop offset="1" stop-color="#E0FF4F"/>
</linearGradient>
<linearGradient id="paint3_linear_4744_21" x1="79.7112" y1="14.5773" x2="0.686908" y2="14.5773" gradientUnits="userSpaceOnUse">
<stop stop-color="#EC2C20"/>
<stop offset="1" stop-color="#E0FF4F"/>
</linearGradient>
<linearGradient id="paint4_linear_4744_21" x1="79.7112" y1="14.5773" x2="0.686908" y2="14.5773" gradientUnits="userSpaceOnUse">
<stop stop-color="#EC2C20"/>
<stop offset="1" stop-color="#E0FF4F"/>
</linearGradient>
<linearGradient id="paint5_linear_4744_21" x1="79.7112" y1="14.5773" x2="0.686908" y2="14.5773" gradientUnits="userSpaceOnUse">
<stop stop-color="#EC2C20"/>
<stop offset="1" stop-color="#E0FF4F"/>
</linearGradient>
<linearGradient id="paint6_linear_4744_21" x1="79.7112" y1="14.5773" x2="0.686908" y2="14.5773" gradientUnits="userSpaceOnUse">
<stop stop-color="#EC2C20"/>
<stop offset="1" stop-color="#E0FF4F"/>
</linearGradient>
<linearGradient id="paint7_linear_4744_21" x1="79.7112" y1="14.5773" x2="0.686908" y2="14.5773" gradientUnits="userSpaceOnUse">
<stop stop-color="#EC2C20"/>
<stop offset="1" stop-color="#E0FF4F"/>
</linearGradient>
<linearGradient id="paint8_linear_4744_21" x1="79.7112" y1="14.5773" x2="0.686908" y2="14.5773" gradientUnits="userSpaceOnUse">
<stop stop-color="#EC2C20"/>
<stop offset="1" stop-color="#E0FF4F"/>
</linearGradient>
<linearGradient id="paint9_linear_4744_21" x1="79.7112" y1="14.5773" x2="0.686908" y2="14.5773" gradientUnits="userSpaceOnUse">
<stop stop-color="#EC2C20"/>
<stop offset="1" stop-color="#E0FF4F"/>
</linearGradient>
</defs>
</svg>
