<svg xmlns="http://www.w3.org/2000/svg" xmlns:xlink="http://www.w3.org/1999/xlink" viewBox="0 0 3353.46 500"><defs><style>.cls-1{fill:#001522;}.cls-2{fill:url(#Degradado_sin_nombre_10);}</style><linearGradient id="Degradado_sin_nombre_10" x1="2024.02" y1="250" x2="3353.46" y2="250" gradientUnits="userSpaceOnUse"><stop offset="0" stop-color="#e99c4d"/><stop offset="1" stop-color="#e86555"/></linearGradient></defs><title>Recurso 7</title><g id="Capa_2" data-name="Capa 2"><g id="Layer_1" data-name="Layer 1"><path class="cls-1" d="M0,0H110.47V486.72H0Z"/><path class="cls-1" d="M215.74,116.47h89.58l7.46,47h3c31.34-29.86,68.67-56,118.68-56,80.63,0,115,56.74,115,149.31V486.72H439.68V271c0-53.74-14.17-70.16-45.54-70.16-27.61,0-44.79,12.68-68.68,35.82V486.72H215.74Z"/><path class="cls-1" d="M603.22,116.47H713.7l47.77,174.67c9.7,36.58,19.42,75.39,29.11,114.22h3c9-38.83,18.67-77.64,28.36-114.22l48.53-174.67H975.71L854.79,486.72H727.89Z"/><path class="cls-1" d="M1180.29,107.5c105.24,0,157.51,76.89,157.51,177.67,0,19.41-2.24,37.32-4.49,46.27h-221.7c9.7,56,47,80.63,96.3,80.63,27.61,0,53-8.22,79.88-24.64l36.57,66.44C1286.29,480,1237,495.68,1193,495.68c-106,0-187.36-71.66-187.36-194.09C1005.61,181.4,1091.46,107.5,1180.29,107.5Zm64.2,156c0-42.55-17.91-72.42-62-72.42-34.34,0-64.2,23.16-71.66,72.42Z"/><path class="cls-1" d="M1430.42,375.49C1464,400.87,1494.6,414.3,1526,414.3c32.83,0,47-11.93,47-31.34,0-24.64-37.32-35.83-75.4-50.77-44.79-17.16-97.79-47.77-97.79-109,0-68.67,56-115.7,141.84-115.7,56.72,0,98.54,23.14,130.62,47L1623,220.21c-26.87-19.39-52.25-31.34-78.37-31.34-28.38,0-41.82,10.44-41.82,29.11,0,23.89,34.34,32.85,72.42,47,47,17.16,100,43.28,100,111.23,0,67.17-53,119.43-152.27,119.43-48.53,0-104.52-20.91-141.84-51.51Z"/><path class="cls-1" d="M1759.64,202.3h-50.77V120.94l56.74-4.47,12.69-98.54h91.08v98.54h88.82V202.3h-88.82V350.85c0,41.8,18.66,59,47.77,59,11.94,0,25.38-3.74,35.09-7.46l17.16,79.88c-19.41,5.95-46.27,13.43-82.11,13.43-91.81,0-127.65-57.49-127.65-143.32Z"/><path class="cls-2" d="M2438.38,0V493.47H2307.72V311.22h-153V493.47H2024V0h130.65V180.53h153V0Zm368.86,455.92c.29-.23.55-.5.84-.74,4.8-4.05,9.5-8.34,14.07-12.94,3.95-3.95,7.56-8,11.11-12.15a204,204,0,0,0,44.09-95,206.44,206.44,0,0,0,2.29-25.19c-4.92-2.31-9.45-5.53-12.4-10.27-9.76-15.16-17.3-31.74-23.5-48.79l-30.15,29.37c-1.78,2.37-4.88,3.31-7.54,3.31h-.45a9.23,9.23,0,0,1-7.53-3.79c-25.72-30.31-23.51-76.73,4.43-104.21a71,71,0,0,1,27.05-18c1.53-49.62,18.75-95.68,50.38-136.36V0H2749.59V303.31q0,27.17-19.61,46.76-19.23,19.28-46.76,19.27t-46.76-19.27q-19.62-19.57-19.61-46.76V0H2486.54V303.31q0,81.17,57.75,138.93Q2601.74,500,2683.22,500c3.83,0,7.51-.32,11.26-.51,42.44-3.09,77.28-17.23,104.89-37.61C2802,459.9,2804.68,458.06,2807.24,455.92ZM3310.61,235.2A158.53,158.53,0,0,0,3328.74,161q0-66.57-47.4-113.93Q3234.33,0,3167.76,0H2926V20.6c10.36,13.73,20.91,29.17,21.8,31.39a228,228,0,0,1,30.15,106.1,71,71,0,0,1,27,18c27.94,27.48,30.16,73.9,4.44,104.22a9.29,9.29,0,0,1-7.54,3.79h-.44c-2.66,0-5.77-1-7.54-3.32l-30.15-29.37a234,234,0,0,1-24.83,51.16c-3.1,4.67-7.74,7.47-12.64,9.46.92-.34,1.85-.52,2.77-.93-.45,85.7,6.7,182.33,144.14,188.9h135v-.35q61.35-4.53,103.14-49.47,42.18-45.31,42.15-107Q3353.46,280.82,3310.61,235.2ZM3058,132.06h109.76a34.18,34.18,0,0,1,25.09,10.45,35.8,35.8,0,0,1,0,50.54,33.75,33.75,0,0,1-25.09,10.79H3058Zm158.55,225.43q-7.31,10.44-19.87,10.45H3058V295.81h133.81a35.7,35.7,0,0,1,35.88,35.89A34,34,0,0,1,3216.55,357.49ZM2926,312.17l.29-.14-.29.1ZM2903,89.7a22.18,22.18,0,1,0,22.18,22.18A22.18,22.18,0,0,0,2903,89.7Zm44.31,42.94L2912,112.26l-4,6.94,35.31,20.38Zm3.56,10a11.46,11.46,0,1,0-16.21,0A11.46,11.46,0,0,0,2950.82,142.63Zm-79.53.51a11.49,11.49,0,1,0-16.25,0A11.49,11.49,0,0,0,2871.29,143.14Zm30.7-26.33-4-6.94-35.31,20.38,4,6.94Zm8.53-42.95a11.49,11.49,0,1,0-16.25,0A11.49,11.49,0,0,0,2910.52,73.86ZM2907,68.51h-8v40.77h8Z"/></g></g></svg>