<svg width="19" height="24" viewBox="0 0 19 24" fill="none" xmlns="http://www.w3.org/2000/svg">
<path d="M3.7502 16.2084C5.33744 17.5826 7.33719 18.3911 9.43497 18.5068C11.3299 18.5068 12.2205 17.7974 12.2205 16.6151C12.2205 15.1585 10.0034 14.4964 7.74849 13.6074C5.0956 12.5953 1.9595 10.7698 1.9595 7.16621C1.9595 3.09912 5.27562 0.318359 10.3635 0.318359C13.1818 0.359762 15.9057 1.33831 18.1042 3.09912L15.1861 6.9865C13.8736 5.88261 12.2456 5.22059 10.534 5.09483C8.85702 5.09483 8.06115 5.70962 8.06115 6.81625C8.06115 8.23501 10.0982 8.76467 12.3531 9.59701C15.1387 10.6185 18.2748 12.1602 18.2748 16.2179C18.2748 20.2755 15.1197 23.3211 9.236 23.3211C6.17942 23.2349 3.23221 22.1668 0.832031 20.2755L3.7502 16.2084Z" fill="#0E1C28"/>
</svg>
